<svg xmlns="http://www.w3.org/2000/svg" xmlns:xlink="http://www.w3.org/1999/xlink" width="500" zoomAndPan="magnify" viewBox="0 0 375 374.999991" height="500" preserveAspectRatio="xMidYMid meet" version="1.0"><defs><g/></defs><rect x="-37.5" width="450" fill="#ffffff" y="-37.499999" height="449.999989" fill-opacity="1"/><rect x="-37.5" width="450" fill="#ffffff" y="-37.499999" height="449.999989" fill-opacity="1"/><g fill="#000000" fill-opacity="1"><g transform="translate(100.516543, 224.737514)"><g><path d="M 33.078125 0 L 16.90625 0 L 16.90625 -124.28125 L 33.078125 -124.28125 Z M 33.078125 0 "/></g></g></g><g fill="#000000" fill-opacity="1"><g transform="translate(150.505122, 224.737514)"><g><path d="M 62.59375 0 L 16.90625 0 L 16.90625 -124.28125 L 62.328125 -124.28125 C 72.128906 -124.28125 81.050781 -122.800781 89.09375 -119.84375 C 97.132812 -116.894531 104.050781 -112.675781 109.84375 -107.1875 C 115.632812 -101.707031 120.082031 -95.175781 123.1875 -87.59375 C 126.289062 -80.007812 127.84375 -71.554688 127.84375 -62.234375 C 127.84375 -52.910156 126.289062 -44.425781 123.1875 -36.78125 C 120.082031 -29.132812 115.648438 -22.566406 109.890625 -17.078125 C 104.128906 -11.597656 97.257812 -7.378906 89.28125 -4.421875 C 81.300781 -1.472656 72.40625 0 62.59375 0 Z M 32.8125 -109.84375 L 32.8125 -14.625 L 62.234375 -14.625 C 72.410156 -14.625 81.164062 -16.554688 88.5 -20.421875 C 95.84375 -24.296875 101.507812 -29.78125 105.5 -36.875 C 109.488281 -43.96875 111.484375 -52.300781 111.484375 -61.875 C 111.484375 -71.5 109.488281 -79.90625 105.5 -87.09375 C 101.507812 -94.28125 95.8125 -99.867188 88.40625 -103.859375 C 81.007812 -107.847656 72.164062 -109.84375 61.875 -109.84375 Z M 32.8125 -109.84375 "/></g></g></g><g fill="#000000" fill-opacity="1"><g transform="translate(70.365234, 264.043811)"><g><path d="M 10.171875 -18.75 C 9.585938 -18.707031 9.160156 -18.628906 8.890625 -18.515625 C 8.628906 -18.410156 8.453125 -18.203125 8.359375 -17.890625 C 8.273438 -17.585938 8.234375 -17.09375 8.234375 -16.40625 L 8.234375 -2.890625 C 8.234375 -2.203125 8.28125 -1.703125 8.375 -1.390625 C 8.476562 -1.078125 8.65625 -0.863281 8.90625 -0.75 C 9.164062 -0.644531 9.585938 -0.578125 10.171875 -0.546875 L 10.171875 0 C 9.109375 -0.0507812 7.585938 -0.078125 5.609375 -0.078125 C 3.410156 -0.078125 1.796875 -0.0507812 0.765625 0 L 0.765625 -0.546875 C 1.347656 -0.578125 1.769531 -0.644531 2.03125 -0.75 C 2.289062 -0.863281 2.46875 -1.078125 2.5625 -1.390625 C 2.65625 -1.703125 2.703125 -2.203125 2.703125 -2.890625 L 2.703125 -16.40625 C 2.703125 -17.09375 2.648438 -17.585938 2.546875 -17.890625 C 2.441406 -18.203125 2.265625 -18.410156 2.015625 -18.515625 C 1.765625 -18.628906 1.347656 -18.707031 0.765625 -18.75 L 0.765625 -19.296875 C 1.796875 -19.242188 3.410156 -19.21875 5.609375 -19.21875 C 7.578125 -19.21875 9.097656 -19.242188 10.171875 -19.296875 Z M 10.171875 -18.75 "/></g></g></g><g fill="#000000" fill-opacity="1"><g transform="translate(81.290907, 264.043811)"><g><path d="M 11.34375 -14.53125 C 12.789062 -14.53125 13.816406 -14.164062 14.421875 -13.4375 C 14.691406 -13.101562 14.890625 -12.660156 15.015625 -12.109375 C 15.140625 -11.554688 15.203125 -10.828125 15.203125 -9.921875 L 15.203125 -2.53125 C 15.203125 -1.789062 15.316406 -1.28125 15.546875 -1 C 15.773438 -0.71875 16.171875 -0.578125 16.734375 -0.578125 L 16.734375 0 C 14.765625 -0.0703125 13.492188 -0.109375 12.921875 -0.109375 C 12.296875 -0.109375 11.003906 -0.0703125 9.046875 0 L 9.046875 -0.578125 C 9.515625 -0.578125 9.835938 -0.71875 10.015625 -1 C 10.203125 -1.28125 10.296875 -1.789062 10.296875 -2.53125 L 10.296875 -11.390625 C 10.296875 -11.972656 10.191406 -12.40625 9.984375 -12.6875 C 9.773438 -12.96875 9.4375 -13.109375 8.96875 -13.109375 C 8.4375 -13.109375 7.972656 -12.921875 7.578125 -12.546875 C 7.191406 -12.171875 7 -11.703125 7 -11.140625 L 7 -2.53125 C 7 -1.789062 7.085938 -1.28125 7.265625 -1 C 7.453125 -0.71875 7.78125 -0.578125 8.25 -0.578125 L 8.25 0 C 6.4375 -0.0703125 5.238281 -0.109375 4.65625 -0.109375 C 4.039062 -0.109375 2.679688 -0.0703125 0.578125 0 L 0.578125 -0.578125 C 1.140625 -0.578125 1.53125 -0.71875 1.75 -1 C 1.976562 -1.28125 2.09375 -1.789062 2.09375 -2.53125 L 2.09375 -11.171875 C 2.09375 -12.003906 1.976562 -12.613281 1.75 -13 C 1.53125 -13.382812 1.140625 -13.578125 0.578125 -13.578125 L 0.578125 -14.140625 C 1.148438 -14.085938 1.710938 -14.0625 2.265625 -14.0625 C 4.148438 -14.0625 5.726562 -14.1875 7 -14.4375 L 7 -12.484375 C 7.820312 -13.847656 9.269531 -14.53125 11.34375 -14.53125 Z M 11.34375 -14.53125 "/></g></g></g><g fill="#000000" fill-opacity="1"><g transform="translate(98.319692, 264.043811)"><g><path d="M 14.0625 -11.390625 C 13.675781 -11.390625 13.34375 -11.519531 13.0625 -11.78125 C 12.78125 -12.050781 12.640625 -12.421875 12.640625 -12.890625 C 12.640625 -13.328125 12.769531 -13.800781 13.03125 -14.3125 C 12.226562 -13.976562 11.632812 -13.515625 11.25 -12.921875 C 11.925781 -12.210938 12.265625 -11.296875 12.265625 -10.171875 C 12.265625 -8.734375 11.734375 -7.644531 10.671875 -6.90625 C 9.609375 -6.164062 8.1875 -5.796875 6.40625 -5.796875 C 6.0625 -5.796875 5.804688 -5.804688 5.640625 -5.828125 C 5.171875 -5.503906 4.9375 -5.125 4.9375 -4.6875 C 4.9375 -4.101562 5.257812 -3.8125 5.90625 -3.8125 L 8.5625 -3.8125 C 10.414062 -3.8125 11.863281 -3.5 12.90625 -2.875 C 13.945312 -2.25 14.46875 -1.273438 14.46875 0.046875 C 14.46875 0.992188 14.160156 1.847656 13.546875 2.609375 C 12.941406 3.378906 12.007812 3.988281 10.75 4.4375 C 9.488281 4.894531 7.910156 5.125 6.015625 5.125 C 4.148438 5.125 2.679688 4.914062 1.609375 4.5 C 0.535156 4.082031 0 3.488281 0 2.71875 C 0 2.195312 0.257812 1.71875 0.78125 1.28125 C 1.3125 0.84375 2.113281 0.5 3.1875 0.25 L 3.453125 0.6875 C 2.960938 1.28125 2.71875 1.859375 2.71875 2.421875 C 2.71875 3.128906 3.039062 3.675781 3.6875 4.0625 C 4.332031 4.457031 5.238281 4.65625 6.40625 4.65625 C 7.601562 4.65625 8.523438 4.414062 9.171875 3.9375 C 9.816406 3.457031 10.140625 2.816406 10.140625 2.015625 C 10.140625 1.453125 9.925781 1 9.5 0.65625 C 9.070312 0.320312 8.320312 0.15625 7.25 0.15625 L 5.78125 0.15625 C 4.539062 0.15625 3.59375 -0.078125 2.9375 -0.546875 C 2.289062 -1.015625 1.96875 -1.648438 1.96875 -2.453125 C 1.96875 -3.179688 2.222656 -3.816406 2.734375 -4.359375 C 3.253906 -4.898438 4.003906 -5.410156 4.984375 -5.890625 C 3.609375 -6.066406 2.523438 -6.515625 1.734375 -7.234375 C 0.941406 -7.953125 0.546875 -8.929688 0.546875 -10.171875 C 0.546875 -11.597656 1.078125 -12.679688 2.140625 -13.421875 C 3.203125 -14.160156 4.625 -14.53125 6.40625 -14.53125 C 8.3125 -14.53125 9.78125 -14.128906 10.8125 -13.328125 C 11.164062 -13.796875 11.585938 -14.164062 12.078125 -14.4375 C 12.566406 -14.707031 13.082031 -14.84375 13.625 -14.84375 C 14.226562 -14.84375 14.691406 -14.675781 15.015625 -14.34375 C 15.335938 -14.007812 15.5 -13.578125 15.5 -13.046875 C 15.5 -12.546875 15.363281 -12.144531 15.09375 -11.84375 C 14.820312 -11.539062 14.476562 -11.390625 14.0625 -11.390625 Z M 6.40625 -6.296875 C 6.769531 -6.296875 7.046875 -6.585938 7.234375 -7.171875 C 7.421875 -7.765625 7.515625 -8.765625 7.515625 -10.171875 C 7.515625 -11.566406 7.421875 -12.554688 7.234375 -13.140625 C 7.046875 -13.734375 6.769531 -14.03125 6.40625 -14.03125 C 6.039062 -14.03125 5.757812 -13.734375 5.5625 -13.140625 C 5.375 -12.554688 5.28125 -11.566406 5.28125 -10.171875 C 5.28125 -8.765625 5.375 -7.765625 5.5625 -7.171875 C 5.757812 -6.585938 6.039062 -6.296875 6.40625 -6.296875 Z M 6.40625 -6.296875 "/></g></g></g><g fill="#000000" fill-opacity="1"><g transform="translate(113.849942, 264.043811)"><g><path d="M 9.078125 -2.59375 C 10.398438 -2.59375 11.5 -3.203125 12.375 -4.421875 L 12.828125 -4.25 C 12.429688 -2.976562 11.753906 -1.890625 10.796875 -0.984375 C 9.847656 -0.078125 8.628906 0.375 7.140625 0.375 C 5.234375 0.375 3.707031 -0.210938 2.5625 -1.390625 C 1.414062 -2.566406 0.84375 -4.457031 0.84375 -7.0625 C 0.84375 -9.550781 1.484375 -11.414062 2.765625 -12.65625 C 4.046875 -13.90625 5.738281 -14.53125 7.84375 -14.53125 C 11.28125 -14.53125 13 -12.492188 13 -8.421875 L 5.96875 -8.421875 C 5.945312 -8.203125 5.9375 -7.875 5.9375 -7.4375 C 5.9375 -5.695312 6.238281 -4.453125 6.84375 -3.703125 C 7.457031 -2.960938 8.203125 -2.59375 9.078125 -2.59375 Z M 7.65625 -13.890625 C 6.632812 -13.890625 6.035156 -12.238281 5.859375 -8.9375 L 9.015625 -8.9375 C 9.035156 -10.394531 8.929688 -11.582031 8.703125 -12.5 C 8.472656 -13.425781 8.125 -13.890625 7.65625 -13.890625 Z M 7.65625 -13.890625 "/></g></g></g><g fill="#000000" fill-opacity="1"><g transform="translate(127.554711, 264.043811)"><g><path d="M 11.34375 -14.53125 C 12.789062 -14.53125 13.816406 -14.164062 14.421875 -13.4375 C 14.691406 -13.101562 14.890625 -12.660156 15.015625 -12.109375 C 15.140625 -11.554688 15.203125 -10.828125 15.203125 -9.921875 L 15.203125 -2.53125 C 15.203125 -1.789062 15.316406 -1.28125 15.546875 -1 C 15.773438 -0.71875 16.171875 -0.578125 16.734375 -0.578125 L 16.734375 0 C 14.765625 -0.0703125 13.492188 -0.109375 12.921875 -0.109375 C 12.296875 -0.109375 11.003906 -0.0703125 9.046875 0 L 9.046875 -0.578125 C 9.515625 -0.578125 9.835938 -0.71875 10.015625 -1 C 10.203125 -1.28125 10.296875 -1.789062 10.296875 -2.53125 L 10.296875 -11.390625 C 10.296875 -11.972656 10.191406 -12.40625 9.984375 -12.6875 C 9.773438 -12.96875 9.4375 -13.109375 8.96875 -13.109375 C 8.4375 -13.109375 7.972656 -12.921875 7.578125 -12.546875 C 7.191406 -12.171875 7 -11.703125 7 -11.140625 L 7 -2.53125 C 7 -1.789062 7.085938 -1.28125 7.265625 -1 C 7.453125 -0.71875 7.78125 -0.578125 8.25 -0.578125 L 8.25 0 C 6.4375 -0.0703125 5.238281 -0.109375 4.65625 -0.109375 C 4.039062 -0.109375 2.679688 -0.0703125 0.578125 0 L 0.578125 -0.578125 C 1.140625 -0.578125 1.53125 -0.71875 1.75 -1 C 1.976562 -1.28125 2.09375 -1.789062 2.09375 -2.53125 L 2.09375 -11.171875 C 2.09375 -12.003906 1.976562 -12.613281 1.75 -13 C 1.53125 -13.382812 1.140625 -13.578125 0.578125 -13.578125 L 0.578125 -14.140625 C 1.148438 -14.085938 1.710938 -14.0625 2.265625 -14.0625 C 4.148438 -14.0625 5.726562 -14.1875 7 -14.4375 L 7 -12.484375 C 7.820312 -13.847656 9.269531 -14.53125 11.34375 -14.53125 Z M 11.34375 -14.53125 "/></g></g></g><g fill="#000000" fill-opacity="1"><g transform="translate(144.583496, 264.043811)"><g><path d="M 4.375 -21.3125 C 5.320312 -21.3125 6.050781 -21.109375 6.5625 -20.703125 C 7.082031 -20.304688 7.34375 -19.726562 7.34375 -18.96875 C 7.34375 -18.207031 7.082031 -17.625 6.5625 -17.21875 C 6.050781 -16.820312 5.320312 -16.625 4.375 -16.625 C 3.414062 -16.625 2.679688 -16.820312 2.171875 -17.21875 C 1.660156 -17.625 1.40625 -18.207031 1.40625 -18.96875 C 1.40625 -19.726562 1.660156 -20.304688 2.171875 -20.703125 C 2.679688 -21.109375 3.414062 -21.3125 4.375 -21.3125 Z M 7 -2.53125 C 7 -1.789062 7.113281 -1.28125 7.34375 -1 C 7.570312 -0.71875 7.96875 -0.578125 8.53125 -0.578125 L 8.53125 0 C 6.570312 -0.0703125 5.28125 -0.109375 4.65625 -0.109375 C 4.039062 -0.109375 2.679688 -0.0703125 0.578125 0 L 0.578125 -0.578125 C 1.140625 -0.578125 1.53125 -0.71875 1.75 -1 C 1.976562 -1.28125 2.09375 -1.789062 2.09375 -2.53125 L 2.09375 -11.171875 C 2.09375 -12.003906 1.976562 -12.613281 1.75 -13 C 1.53125 -13.382812 1.140625 -13.578125 0.578125 -13.578125 L 0.578125 -14.140625 C 1.148438 -14.085938 1.710938 -14.0625 2.265625 -14.0625 C 4.148438 -14.0625 5.726562 -14.1875 7 -14.4375 Z M 7 -2.53125 "/></g></g></g><g fill="#000000" fill-opacity="1"><g transform="translate(153.574694, 264.043811)"><g><path d="M 14.9375 -2.96875 C 14.9375 -2.132812 15.046875 -1.523438 15.265625 -1.140625 C 15.492188 -0.765625 15.890625 -0.578125 16.453125 -0.578125 L 16.453125 0 C 15.890625 -0.0507812 15.328125 -0.078125 14.765625 -0.078125 C 12.878906 -0.078125 11.300781 0.046875 10.03125 0.296875 L 10.03125 -1.65625 C 9.207031 -0.300781 7.757812 0.375 5.6875 0.375 C 4.238281 0.375 3.210938 0.015625 2.609375 -0.703125 C 2.335938 -1.035156 2.140625 -1.476562 2.015625 -2.03125 C 1.890625 -2.582031 1.828125 -3.3125 1.828125 -4.21875 L 1.828125 -11.171875 C 1.828125 -12.003906 1.710938 -12.613281 1.484375 -13 C 1.253906 -13.382812 0.859375 -13.578125 0.296875 -13.578125 L 0.296875 -14.140625 C 0.859375 -14.085938 1.421875 -14.0625 1.984375 -14.0625 C 3.878906 -14.0625 5.460938 -14.1875 6.734375 -14.4375 L 6.734375 -2.75 C 6.734375 -2.164062 6.835938 -1.734375 7.046875 -1.453125 C 7.253906 -1.171875 7.59375 -1.03125 8.0625 -1.03125 C 8.59375 -1.03125 9.050781 -1.21875 9.4375 -1.59375 C 9.832031 -1.96875 10.03125 -2.4375 10.03125 -3 L 10.03125 -11.171875 C 10.03125 -12.003906 9.914062 -12.613281 9.6875 -13 C 9.457031 -13.382812 9.0625 -13.578125 8.5 -13.578125 L 8.5 -14.140625 C 9.0625 -14.085938 9.625 -14.0625 10.1875 -14.0625 C 12.082031 -14.0625 13.664062 -14.1875 14.9375 -14.4375 Z M 14.9375 -2.96875 "/></g></g></g><g fill="#000000" fill-opacity="1"><g transform="translate(170.521745, 264.043811)"><g><path d="M 23.140625 -2.53125 C 23.140625 -1.789062 23.25 -1.28125 23.46875 -1 C 23.695312 -0.71875 24.09375 -0.578125 24.65625 -0.578125 L 24.65625 0 C 22.695312 -0.0703125 21.425781 -0.109375 20.84375 -0.109375 C 20.257812 -0.109375 19.0625 -0.0703125 17.25 0 L 17.25 -0.578125 C 17.613281 -0.578125 17.867188 -0.710938 18.015625 -0.984375 C 18.160156 -1.253906 18.234375 -1.769531 18.234375 -2.53125 L 18.234375 -11.390625 C 18.234375 -11.972656 18.128906 -12.40625 17.921875 -12.6875 C 17.710938 -12.96875 17.367188 -13.109375 16.890625 -13.109375 C 16.421875 -13.109375 15.988281 -12.90625 15.59375 -12.5 C 15.207031 -12.101562 14.96875 -11.632812 14.875 -11.09375 C 14.914062 -10.65625 14.9375 -10.265625 14.9375 -9.921875 L 14.9375 -2.53125 C 14.9375 -1.769531 15.023438 -1.253906 15.203125 -0.984375 C 15.390625 -0.710938 15.71875 -0.578125 16.1875 -0.578125 L 16.1875 0 C 14.375 -0.0703125 13.191406 -0.109375 12.640625 -0.109375 C 12.054688 -0.109375 10.859375 -0.0703125 9.046875 0 L 9.046875 -0.578125 C 9.410156 -0.578125 9.664062 -0.71875 9.8125 -1 C 9.957031 -1.28125 10.03125 -1.789062 10.03125 -2.53125 L 10.03125 -11.390625 C 10.03125 -11.972656 9.945312 -12.40625 9.78125 -12.6875 C 9.613281 -12.96875 9.34375 -13.109375 8.96875 -13.109375 C 8.4375 -13.109375 7.972656 -12.921875 7.578125 -12.546875 C 7.191406 -12.171875 7 -11.703125 7 -11.140625 L 7 -2.53125 C 7 -1.769531 7.070312 -1.253906 7.21875 -0.984375 C 7.363281 -0.710938 7.617188 -0.578125 7.984375 -0.578125 L 7.984375 0 C 6.316406 -0.0703125 5.207031 -0.109375 4.65625 -0.109375 C 4.039062 -0.109375 2.679688 -0.0703125 0.578125 0 L 0.578125 -0.578125 C 1.140625 -0.578125 1.53125 -0.71875 1.75 -1 C 1.976562 -1.28125 2.09375 -1.789062 2.09375 -2.53125 L 2.09375 -11.171875 C 2.09375 -12.003906 1.976562 -12.613281 1.75 -13 C 1.53125 -13.382812 1.140625 -13.578125 0.578125 -13.578125 L 0.578125 -14.140625 C 1.148438 -14.085938 1.710938 -14.0625 2.265625 -14.0625 C 4.148438 -14.0625 5.726562 -14.1875 7 -14.4375 L 7 -12.484375 C 7.757812 -13.847656 9.113281 -14.53125 11.0625 -14.53125 C 12.519531 -14.53125 13.546875 -14.164062 14.140625 -13.4375 C 14.410156 -13.101562 14.613281 -12.675781 14.75 -12.15625 C 15.195312 -13.03125 15.796875 -13.644531 16.546875 -14 C 17.304688 -14.351562 18.210938 -14.53125 19.265625 -14.53125 C 20.722656 -14.53125 21.75 -14.164062 22.34375 -13.4375 C 22.613281 -13.101562 22.8125 -12.660156 22.9375 -12.109375 C 23.070312 -11.554688 23.140625 -10.828125 23.140625 -9.921875 Z M 23.140625 -2.53125 "/></g></g></g><g fill="#000000" fill-opacity="1"><g transform="translate(195.479133, 264.043811)"><g/></g></g><g fill="#000000" fill-opacity="1"><g transform="translate(201.555007, 264.043811)"><g><path d="M 9.84375 -19.296875 C 13.601562 -19.296875 16.414062 -18.488281 18.28125 -16.875 C 20.15625 -15.269531 21.09375 -12.929688 21.09375 -9.859375 C 21.09375 -7.878906 20.632812 -6.148438 19.71875 -4.671875 C 18.800781 -3.191406 17.476562 -2.039062 15.75 -1.21875 C 14.019531 -0.40625 11.96875 0 9.59375 0 L 7.90625 -0.03125 C 6.8125 -0.0625 6.007812 -0.078125 5.5 -0.078125 C 3.375 -0.078125 1.796875 -0.0507812 0.765625 0 L 0.765625 -0.546875 C 1.347656 -0.578125 1.769531 -0.644531 2.03125 -0.75 C 2.289062 -0.863281 2.46875 -1.078125 2.5625 -1.390625 C 2.65625 -1.703125 2.703125 -2.203125 2.703125 -2.890625 L 2.703125 -16.40625 C 2.703125 -17.09375 2.648438 -17.585938 2.546875 -17.890625 C 2.441406 -18.203125 2.265625 -18.410156 2.015625 -18.515625 C 1.765625 -18.628906 1.347656 -18.707031 0.765625 -18.75 L 0.765625 -19.296875 C 1.597656 -19.242188 2.832031 -19.21875 4.46875 -19.21875 L 5.453125 -19.21875 L 6.65625 -19.234375 C 8.175781 -19.273438 9.238281 -19.296875 9.84375 -19.296875 Z M 10.25 -18.796875 C 9.6875 -18.796875 9.265625 -18.734375 8.984375 -18.609375 C 8.703125 -18.484375 8.503906 -18.253906 8.390625 -17.921875 C 8.285156 -17.597656 8.234375 -17.109375 8.234375 -16.453125 L 8.234375 -2.828125 C 8.234375 -2.179688 8.285156 -1.691406 8.390625 -1.359375 C 8.503906 -1.035156 8.703125 -0.804688 8.984375 -0.671875 C 9.265625 -0.546875 9.691406 -0.484375 10.265625 -0.484375 C 12.066406 -0.484375 13.367188 -1.257812 14.171875 -2.8125 C 14.972656 -4.375 15.375 -6.6875 15.375 -9.75 C 15.375 -12.820312 14.957031 -15.097656 14.125 -16.578125 C 13.300781 -18.054688 12.007812 -18.796875 10.25 -18.796875 Z M 10.25 -18.796875 "/></g></g></g><g fill="#000000" fill-opacity="1"><g transform="translate(223.651556, 264.043811)"><g><path d="M 9.078125 -2.59375 C 10.398438 -2.59375 11.5 -3.203125 12.375 -4.421875 L 12.828125 -4.25 C 12.429688 -2.976562 11.753906 -1.890625 10.796875 -0.984375 C 9.847656 -0.078125 8.628906 0.375 7.140625 0.375 C 5.234375 0.375 3.707031 -0.210938 2.5625 -1.390625 C 1.414062 -2.566406 0.84375 -4.457031 0.84375 -7.0625 C 0.84375 -9.550781 1.484375 -11.414062 2.765625 -12.65625 C 4.046875 -13.90625 5.738281 -14.53125 7.84375 -14.53125 C 11.28125 -14.53125 13 -12.492188 13 -8.421875 L 5.96875 -8.421875 C 5.945312 -8.203125 5.9375 -7.875 5.9375 -7.4375 C 5.9375 -5.695312 6.238281 -4.453125 6.84375 -3.703125 C 7.457031 -2.960938 8.203125 -2.59375 9.078125 -2.59375 Z M 7.65625 -13.890625 C 6.632812 -13.890625 6.035156 -12.238281 5.859375 -8.9375 L 9.015625 -8.9375 C 9.035156 -10.394531 8.929688 -11.582031 8.703125 -12.5 C 8.472656 -13.425781 8.125 -13.890625 7.65625 -13.890625 Z M 7.65625 -13.890625 "/></g></g></g><g fill="#000000" fill-opacity="1"><g transform="translate(237.356325, 264.043811)"><g><path d="M 6.296875 -14.53125 C 7.003906 -14.53125 7.671875 -14.453125 8.296875 -14.296875 C 8.921875 -14.140625 9.398438 -13.96875 9.734375 -13.78125 C 9.929688 -13.675781 10.09375 -13.625 10.21875 -13.625 C 10.601562 -13.625 10.832031 -13.914062 10.90625 -14.5 L 11.4375 -14.5 C 11.375 -13.550781 11.34375 -11.914062 11.34375 -9.59375 L 10.796875 -9.59375 C 10.648438 -10.789062 10.304688 -11.800781 9.765625 -12.625 C 9.234375 -13.457031 8.457031 -13.875 7.4375 -13.875 C 6.988281 -13.875 6.609375 -13.734375 6.296875 -13.453125 C 5.984375 -13.179688 5.828125 -12.8125 5.828125 -12.34375 C 5.828125 -11.738281 6.023438 -11.207031 6.421875 -10.75 C 6.828125 -10.289062 7.457031 -9.722656 8.3125 -9.046875 C 8.34375 -9.023438 8.601562 -8.816406 9.09375 -8.421875 C 10.113281 -7.585938 10.859375 -6.847656 11.328125 -6.203125 C 11.804688 -5.554688 12.046875 -4.757812 12.046875 -3.8125 C 12.046875 -3.007812 11.800781 -2.285156 11.3125 -1.640625 C 10.820312 -1.003906 10.148438 -0.507812 9.296875 -0.15625 C 8.453125 0.195312 7.535156 0.375 6.546875 0.375 C 5.398438 0.375 4.460938 0.148438 3.734375 -0.296875 C 3.421875 -0.460938 3.164062 -0.582031 2.96875 -0.65625 C 2.769531 -0.726562 2.570312 -0.765625 2.375 -0.765625 C 2.03125 -0.765625 1.773438 -0.445312 1.609375 0.1875 L 1.0625 0.1875 C 1.132812 -0.84375 1.171875 -2.660156 1.171875 -5.265625 L 1.71875 -5.265625 C 1.882812 -3.773438 2.285156 -2.570312 2.921875 -1.65625 C 3.554688 -0.75 4.351562 -0.296875 5.3125 -0.296875 C 5.769531 -0.296875 6.144531 -0.421875 6.4375 -0.671875 C 6.738281 -0.929688 6.890625 -1.304688 6.890625 -1.796875 C 6.890625 -2.304688 6.785156 -2.757812 6.578125 -3.15625 C 6.367188 -3.5625 6.113281 -3.921875 5.8125 -4.234375 C 5.519531 -4.554688 5.035156 -5.015625 4.359375 -5.609375 C 3.597656 -6.316406 3.015625 -6.878906 2.609375 -7.296875 C 2.210938 -7.722656 1.875 -8.210938 1.59375 -8.765625 C 1.3125 -9.316406 1.171875 -9.925781 1.171875 -10.59375 C 1.171875 -11.375 1.40625 -12.066406 1.875 -12.671875 C 2.351562 -13.273438 2.984375 -13.734375 3.765625 -14.046875 C 4.546875 -14.367188 5.390625 -14.53125 6.296875 -14.53125 Z M 6.296875 -14.53125 "/></g></g></g><g fill="#000000" fill-opacity="1"><g transform="translate(250.216462, 264.043811)"><g><path d="M 4.375 -21.3125 C 5.320312 -21.3125 6.050781 -21.109375 6.5625 -20.703125 C 7.082031 -20.304688 7.34375 -19.726562 7.34375 -18.96875 C 7.34375 -18.207031 7.082031 -17.625 6.5625 -17.21875 C 6.050781 -16.820312 5.320312 -16.625 4.375 -16.625 C 3.414062 -16.625 2.679688 -16.820312 2.171875 -17.21875 C 1.660156 -17.625 1.40625 -18.207031 1.40625 -18.96875 C 1.40625 -19.726562 1.660156 -20.304688 2.171875 -20.703125 C 2.679688 -21.109375 3.414062 -21.3125 4.375 -21.3125 Z M 7 -2.53125 C 7 -1.789062 7.113281 -1.28125 7.34375 -1 C 7.570312 -0.71875 7.96875 -0.578125 8.53125 -0.578125 L 8.53125 0 C 6.570312 -0.0703125 5.28125 -0.109375 4.65625 -0.109375 C 4.039062 -0.109375 2.679688 -0.0703125 0.578125 0 L 0.578125 -0.578125 C 1.140625 -0.578125 1.53125 -0.71875 1.75 -1 C 1.976562 -1.28125 2.09375 -1.789062 2.09375 -2.53125 L 2.09375 -11.171875 C 2.09375 -12.003906 1.976562 -12.613281 1.75 -13 C 1.53125 -13.382812 1.140625 -13.578125 0.578125 -13.578125 L 0.578125 -14.140625 C 1.148438 -14.085938 1.710938 -14.0625 2.265625 -14.0625 C 4.148438 -14.0625 5.726562 -14.1875 7 -14.4375 Z M 7 -2.53125 "/></g></g></g><g fill="#000000" fill-opacity="1"><g transform="translate(259.207661, 264.043811)"><g><path d="M 14.0625 -11.390625 C 13.675781 -11.390625 13.34375 -11.519531 13.0625 -11.78125 C 12.78125 -12.050781 12.640625 -12.421875 12.640625 -12.890625 C 12.640625 -13.328125 12.769531 -13.800781 13.03125 -14.3125 C 12.226562 -13.976562 11.632812 -13.515625 11.25 -12.921875 C 11.925781 -12.210938 12.265625 -11.296875 12.265625 -10.171875 C 12.265625 -8.734375 11.734375 -7.644531 10.671875 -6.90625 C 9.609375 -6.164062 8.1875 -5.796875 6.40625 -5.796875 C 6.0625 -5.796875 5.804688 -5.804688 5.640625 -5.828125 C 5.171875 -5.503906 4.9375 -5.125 4.9375 -4.6875 C 4.9375 -4.101562 5.257812 -3.8125 5.90625 -3.8125 L 8.5625 -3.8125 C 10.414062 -3.8125 11.863281 -3.5 12.90625 -2.875 C 13.945312 -2.25 14.46875 -1.273438 14.46875 0.046875 C 14.46875 0.992188 14.160156 1.847656 13.546875 2.609375 C 12.941406 3.378906 12.007812 3.988281 10.75 4.4375 C 9.488281 4.894531 7.910156 5.125 6.015625 5.125 C 4.148438 5.125 2.679688 4.914062 1.609375 4.5 C 0.535156 4.082031 0 3.488281 0 2.71875 C 0 2.195312 0.257812 1.71875 0.78125 1.28125 C 1.3125 0.84375 2.113281 0.5 3.1875 0.25 L 3.453125 0.6875 C 2.960938 1.28125 2.71875 1.859375 2.71875 2.421875 C 2.71875 3.128906 3.039062 3.675781 3.6875 4.0625 C 4.332031 4.457031 5.238281 4.65625 6.40625 4.65625 C 7.601562 4.65625 8.523438 4.414062 9.171875 3.9375 C 9.816406 3.457031 10.140625 2.816406 10.140625 2.015625 C 10.140625 1.453125 9.925781 1 9.5 0.65625 C 9.070312 0.320312 8.320312 0.15625 7.25 0.15625 L 5.78125 0.15625 C 4.539062 0.15625 3.59375 -0.078125 2.9375 -0.546875 C 2.289062 -1.015625 1.96875 -1.648438 1.96875 -2.453125 C 1.96875 -3.179688 2.222656 -3.816406 2.734375 -4.359375 C 3.253906 -4.898438 4.003906 -5.410156 4.984375 -5.890625 C 3.609375 -6.066406 2.523438 -6.515625 1.734375 -7.234375 C 0.941406 -7.953125 0.546875 -8.929688 0.546875 -10.171875 C 0.546875 -11.597656 1.078125 -12.679688 2.140625 -13.421875 C 3.203125 -14.160156 4.625 -14.53125 6.40625 -14.53125 C 8.3125 -14.53125 9.78125 -14.128906 10.8125 -13.328125 C 11.164062 -13.796875 11.585938 -14.164062 12.078125 -14.4375 C 12.566406 -14.707031 13.082031 -14.84375 13.625 -14.84375 C 14.226562 -14.84375 14.691406 -14.675781 15.015625 -14.34375 C 15.335938 -14.007812 15.5 -13.578125 15.5 -13.046875 C 15.5 -12.546875 15.363281 -12.144531 15.09375 -11.84375 C 14.820312 -11.539062 14.476562 -11.390625 14.0625 -11.390625 Z M 6.40625 -6.296875 C 6.769531 -6.296875 7.046875 -6.585938 7.234375 -7.171875 C 7.421875 -7.765625 7.515625 -8.765625 7.515625 -10.171875 C 7.515625 -11.566406 7.421875 -12.554688 7.234375 -13.140625 C 7.046875 -13.734375 6.769531 -14.03125 6.40625 -14.03125 C 6.039062 -14.03125 5.757812 -13.734375 5.5625 -13.140625 C 5.375 -12.554688 5.28125 -11.566406 5.28125 -10.171875 C 5.28125 -8.765625 5.375 -7.765625 5.5625 -7.171875 C 5.757812 -6.585938 6.039062 -6.296875 6.40625 -6.296875 Z M 6.40625 -6.296875 "/></g></g></g><g fill="#000000" fill-opacity="1"><g transform="translate(274.737911, 264.043811)"><g><path d="M 11.34375 -14.53125 C 12.789062 -14.53125 13.816406 -14.164062 14.421875 -13.4375 C 14.691406 -13.101562 14.890625 -12.660156 15.015625 -12.109375 C 15.140625 -11.554688 15.203125 -10.828125 15.203125 -9.921875 L 15.203125 -2.53125 C 15.203125 -1.789062 15.316406 -1.28125 15.546875 -1 C 15.773438 -0.71875 16.171875 -0.578125 16.734375 -0.578125 L 16.734375 0 C 14.765625 -0.0703125 13.492188 -0.109375 12.921875 -0.109375 C 12.296875 -0.109375 11.003906 -0.0703125 9.046875 0 L 9.046875 -0.578125 C 9.515625 -0.578125 9.835938 -0.71875 10.015625 -1 C 10.203125 -1.28125 10.296875 -1.789062 10.296875 -2.53125 L 10.296875 -11.390625 C 10.296875 -11.972656 10.191406 -12.40625 9.984375 -12.6875 C 9.773438 -12.96875 9.4375 -13.109375 8.96875 -13.109375 C 8.4375 -13.109375 7.972656 -12.921875 7.578125 -12.546875 C 7.191406 -12.171875 7 -11.703125 7 -11.140625 L 7 -2.53125 C 7 -1.789062 7.085938 -1.28125 7.265625 -1 C 7.453125 -0.71875 7.78125 -0.578125 8.25 -0.578125 L 8.25 0 C 6.4375 -0.0703125 5.238281 -0.109375 4.65625 -0.109375 C 4.039062 -0.109375 2.679688 -0.0703125 0.578125 0 L 0.578125 -0.578125 C 1.140625 -0.578125 1.53125 -0.71875 1.75 -1 C 1.976562 -1.28125 2.09375 -1.789062 2.09375 -2.53125 L 2.09375 -11.171875 C 2.09375 -12.003906 1.976562 -12.613281 1.75 -13 C 1.53125 -13.382812 1.140625 -13.578125 0.578125 -13.578125 L 0.578125 -14.140625 C 1.148438 -14.085938 1.710938 -14.0625 2.265625 -14.0625 C 4.148438 -14.0625 5.726562 -14.1875 7 -14.4375 L 7 -12.484375 C 7.820312 -13.847656 9.269531 -14.53125 11.34375 -14.53125 Z M 11.34375 -14.53125 "/></g></g></g><g fill="#000000" fill-opacity="1"><g transform="translate(291.766696, 264.043811)"><g><path d="M 6.296875 -14.53125 C 7.003906 -14.53125 7.671875 -14.453125 8.296875 -14.296875 C 8.921875 -14.140625 9.398438 -13.96875 9.734375 -13.78125 C 9.929688 -13.675781 10.09375 -13.625 10.21875 -13.625 C 10.601562 -13.625 10.832031 -13.914062 10.90625 -14.5 L 11.4375 -14.5 C 11.375 -13.550781 11.34375 -11.914062 11.34375 -9.59375 L 10.796875 -9.59375 C 10.648438 -10.789062 10.304688 -11.800781 9.765625 -12.625 C 9.234375 -13.457031 8.457031 -13.875 7.4375 -13.875 C 6.988281 -13.875 6.609375 -13.734375 6.296875 -13.453125 C 5.984375 -13.179688 5.828125 -12.8125 5.828125 -12.34375 C 5.828125 -11.738281 6.023438 -11.207031 6.421875 -10.75 C 6.828125 -10.289062 7.457031 -9.722656 8.3125 -9.046875 C 8.34375 -9.023438 8.601562 -8.816406 9.09375 -8.421875 C 10.113281 -7.585938 10.859375 -6.847656 11.328125 -6.203125 C 11.804688 -5.554688 12.046875 -4.757812 12.046875 -3.8125 C 12.046875 -3.007812 11.800781 -2.285156 11.3125 -1.640625 C 10.820312 -1.003906 10.148438 -0.507812 9.296875 -0.15625 C 8.453125 0.195312 7.535156 0.375 6.546875 0.375 C 5.398438 0.375 4.460938 0.148438 3.734375 -0.296875 C 3.421875 -0.460938 3.164062 -0.582031 2.96875 -0.65625 C 2.769531 -0.726562 2.570312 -0.765625 2.375 -0.765625 C 2.03125 -0.765625 1.773438 -0.445312 1.609375 0.1875 L 1.0625 0.1875 C 1.132812 -0.84375 1.171875 -2.660156 1.171875 -5.265625 L 1.71875 -5.265625 C 1.882812 -3.773438 2.285156 -2.570312 2.921875 -1.65625 C 3.554688 -0.75 4.351562 -0.296875 5.3125 -0.296875 C 5.769531 -0.296875 6.144531 -0.421875 6.4375 -0.671875 C 6.738281 -0.929688 6.890625 -1.304688 6.890625 -1.796875 C 6.890625 -2.304688 6.785156 -2.757812 6.578125 -3.15625 C 6.367188 -3.5625 6.113281 -3.921875 5.8125 -4.234375 C 5.519531 -4.554688 5.035156 -5.015625 4.359375 -5.609375 C 3.597656 -6.316406 3.015625 -6.878906 2.609375 -7.296875 C 2.210938 -7.722656 1.875 -8.210938 1.59375 -8.765625 C 1.3125 -9.316406 1.171875 -9.925781 1.171875 -10.59375 C 1.171875 -11.375 1.40625 -12.066406 1.875 -12.671875 C 2.351562 -13.273438 2.984375 -13.734375 3.765625 -14.046875 C 4.546875 -14.367188 5.390625 -14.53125 6.296875 -14.53125 Z M 6.296875 -14.53125 "/></g></g></g></svg>